# xmcd
# 
# Track frame offsets:
#     150
#     13710
#     23360
#     35217
#     47322
#     57280
#     68665
#     80557
#     89892
#     101660
#     115555
#     125497
#     135222
#     148375
#     161177
#     173302
# 
# Disc length: 2491
# 
# Revision: 4
# Processed by: cddbd v1.5.2PL0 Copyright (c) Steve Scherf et al.
# Submitted via: fre:ac v1.0.17
# 
DISCID=cf09b910
DTITLE=Loretta Lynn - Coal Miner's Daughter - The Best Of Loretta Lynn
DYEAR=1993
DGENRE=Country
TTITLE0=Coal Miner's Daughter
TTITLE1=Don't Come Home A' Drinkin' (With Lovin' On Your Mind)
TTITLE2=Rated X
TTITLE3=Blue Kentucky Girl
TTITLE4=Fist City
TTITLE5=Love Is The Foundation
TTITLE6=One's On The Way
TTITLE7=Your Squaw Is On The Warpath
TTITLE8=The Pill
TTITLE9=She's Got You
TTITLE10=You Ain't Woman Enough
TTITLE11=Trouble In Paradise
TTITLE12=Woman Of The World (Leave My World Alone)
TTITLE13=Hey Loretta
TTITLE14=Out Of My Head And Back In My Bed
TTITLE15=Somebody Somewhere (Don't Know What He's Missin' Tonight)
EXTD=YEAR: 1993
EXTT0=
EXTT1=
EXTT2=
EXTT3=
EXTT4=
EXTT5=
EXTT6=
EXTT7=
EXTT8=
EXTT9=
EXTT10=
EXTT11=
EXTT12=
EXTT13=
EXTT14=
EXTT15=
PLAYORDER=
